<svg width="33" height="33" viewBox="0 0 33 33" fill="none" xmlns="http://www.w3.org/2000/svg">
<circle cx="16.6425" cy="16.5945" r="16" fill="black" fill-opacity="0.04"/>
<path d="M25.1846 16.2885L25.1847 16.2885V16.2865V10.0764C25.1847 9.53452 24.9679 9.01976 24.5887 8.64054C24.2094 8.26131 23.6947 8.04453 23.1527 8.04453H16.9427V8.04448L16.9406 8.04457C16.2955 8.07145 15.675 8.31352 15.2156 8.79964L6.99778 17.0439C5.84379 18.1979 5.78724 20.0796 6.91872 21.1843C6.91879 21.1844 6.91886 21.1845 6.91893 21.1845L12.0715 26.3371C12.6102 26.8758 13.3367 27.1445 14.0623 27.1445C14.8413 27.1445 15.6208 26.849 16.2121 26.231C16.2123 26.2309 16.2124 26.2308 16.2125 26.2306L24.4301 18.0131C24.8883 17.5549 25.1577 16.9352 25.1846 16.2885ZM24.2919 10.1029L24.2919 10.1031L24.3183 16.2865C24.3183 16.2865 24.3183 16.2866 24.3183 16.2867C24.3183 16.695 24.1394 17.1053 23.8309 17.4138C23.8309 17.4138 23.8309 17.4138 23.8309 17.4138L15.5862 25.6321L15.5861 25.6322C14.7583 26.4599 13.4688 26.4831 12.6971 25.7115L7.54415 20.5585C6.77253 19.7869 6.79567 18.4973 7.62343 17.6695L15.8418 9.45116C16.1507 9.14226 16.5612 8.96372 16.9427 8.96372H23.1527C23.4553 8.96372 23.7346 9.08972 23.9651 9.29462C24.1896 9.4941 24.2919 9.79592 24.2919 10.1029Z" fill="#313131" stroke="#313131" stroke-width="0.1"/>
<path d="M19.7439 16.0722C20.3898 16.0722 21.064 15.8301 21.5502 15.3172C22.547 14.3199 22.5469 12.703 21.5497 11.7059C20.5525 10.7086 18.9353 10.7086 17.938 11.7059C16.9409 12.703 16.9407 14.3199 17.9375 15.3172C18.4238 15.8301 19.0979 16.0722 19.7439 16.0722ZM18.5637 12.3316C18.8973 11.9979 19.3072 11.8441 19.7439 11.8441C20.1805 11.8441 20.5904 11.9979 20.9241 12.3316C21.5652 12.9727 21.5652 14.0509 20.9241 14.692C20.283 15.3331 19.2048 15.3331 18.5637 14.692C17.9225 14.0509 17.9225 12.9727 18.5637 12.3316Z" fill="#313131" stroke="#313131" stroke-width="0.1"/>
</svg>
