<svg width="21" height="32" viewBox="0 0 50 75" fill="none" xmlns="http://www.w3.org/2000/svg"><rect opacity=".4" x="13.75" y="4.75" width="4.5" height="6" rx=".75" fill="#EDEDED"/><path fill-rule="evenodd" clip-rule="evenodd" d="M12.546 25.75c.518 0 .935.112 1.199.213l-.181 1.077-.121-.052a2.33 2.33 0 00-.996-.191c-.529 0-.765.216-.77.429 0 .233.286.387.754.616.77.356 1.127.792 1.122 1.36-.01 1.035-.925 1.704-2.327 1.704-.6-.005-1.178-.128-1.49-.265l.186-1.122.177.082c.435.185.72.265 1.254.265.384 0 .797-.154.803-.49 0-.216-.176-.376-.693-.62-.507-.239-1.182-.638-1.172-1.354.006-.973.935-1.652 2.256-1.652h-.001zm-2.81.09L8.9 30.833H7.563l.835-4.991h1.337zm8.514 4.992l-1.08-4.991v-.001h-1.03c-.32 0-.561.09-.699.416l-1.985 4.575h1.4l.281-.747h1.716c.04.174.16.748.16.748h1.238zM3.92 25.841c.292.01.53.1.607.42l.467 2.294.142.69 1.31-3.403H7.86l-2.101 4.984H4.346l-1.192-4.338a5.633 5.633 0 00-1.404-.547l.022-.101h2.15zm12.181 1.7l.13-.352.092.431.308 1.444h-1.11l.534-1.397.046-.126z" fill="#fff"/><rect x="48.81" y="1.19" width="71.429" height="47.619" rx="3" transform="rotate(90 48.81 1.19)" fill="#232A37"/><rect x="50" width="75" height="50" rx="3" transform="rotate(90 50 0)" fill="#232A37"/><path fill-rule="evenodd" clip-rule="evenodd" d="M29.24 57.25c.863 0 1.559.187 1.997.355l-.301 1.796-.202-.089a3.883 3.883 0 00-1.66-.317c-.881 0-1.274.36-1.283.715 0 .389.477.645 1.257 1.027 1.283.593 1.878 1.32 1.87 2.266-.018 1.726-1.541 2.84-3.879 2.84-1-.008-1.962-.214-2.483-.442l.31-1.87.295.138c.725.308 1.202.44 2.09.44.64 0 1.328-.256 1.338-.816 0-.36-.293-.627-1.155-1.032-.844-.4-1.97-1.065-1.953-2.258.01-1.621 1.558-2.753 3.759-2.753zm-4.686.151l-1.393 8.319h-2.227l1.391-8.319h2.229zm14.192 8.319l-1.799-8.319V57.4h-1.72c-.532 0-.935.151-1.164.693l-3.309 7.626h2.335l.468-1.246h2.86c.064.29.267 1.247.267 1.247h2.062zm-23.88-8.319c.486.017.88.167 1.01.7l.778 3.824.238 1.15 2.183-5.672h2.354l-3.502 8.307h-2.354l-1.987-7.23a9.388 9.388 0 00-2.34-.912l.037-.168h3.584l-.002.001zm20.3 2.834c.064-.17.153-.41.216-.587l.155.72.513 2.405H34.2l.89-2.328c-.004.008.029-.08.077-.21z" fill="#fff"/><rect opacity=".4" x="32.812" y="7.813" width="9.375" height="12.5" rx=".75" fill="#EDEDED"/><path d="M39.285 40.483c-.028-5.123-6.392-9.245-14.188-9.245h-.185a20.112 20.112 0 00-7.373 1.397c-3.944 1.575-6.637 4.37-6.825 7.576v1.46c.153 2.55 1.537 4.869 3.933 6.563 2.598 1.837 6.126 2.794 10.21 2.794h.216c4.191-.035 7.789-1.069 10.398-2.983 2.483-1.823 3.842-4.32 3.814-7.038v-.524z" fill="#fff"/><path d="M23.592 44.469c.128-.05.264-.081.401-.091a1.032 1.032 0 01.43 1.993 1.03 1.03 0 01-.412.064 1.02 1.02 0 01-1.027-.97c0-.235-.136-.273-.21-.273a.3.3 0 00-.192.098.7.7 0 01-.485.227.795.795 0 01-.329-.07.747.747 0 01-.555-.821.23.23 0 00-.045-.206.285.285 0 00-.116-.06.241.241 0 00-.188.06 1.02 1.02 0 01-.507.23.748.748 0 01-.272-.048 1.069 1.069 0 01-.737-1.216.186.186 0 00-.063-.196c-.094-.059-.181.028-.237.084a.578.578 0 01-.482.157.866.866 0 01-.804-.817.782.782 0 01.776-.79.716.716 0 01.81.591.182.182 0 010 .046c0 .066.02.157.105.185.084.028.146-.06.181-.116a.45.45 0 01.028-.042l.025-.031a.935.935 0 01.883-.391c.119 0 .237.017.35.052a.804.804 0 01.524.797.203.203 0 00.192.199.217.217 0 00.16-.08.868.868 0 01.605-.325c.154 0 .306.034.447.097.747.315.408 1.279.405 1.286-.046.111-.119.303.038.405h.095a.531.531 0 00.167-.042l.039.014zm14.914-5.093a32.713 32.713 0 00-5.847 1.96c-1.352-1.16-4.474-3.842-5.323-4.457a3.8 3.8 0 00-1.135-.646 1.747 1.747 0 00-.566-.08 2.242 2.242 0 00-.699.125 5.676 5.676 0 00-1.638 1.048l-.031.028a4.52 4.52 0 01-1.352.87 2.345 2.345 0 01-.492.056 1.279 1.279 0 01-.87-.255l.038-.06 1.177-1.289c.912-.929 1.771-1.802 3.762-1.865h.098a6.934 6.934 0 012.616.618 8.383 8.383 0 003.678.832 9.49 9.49 0 003.93-.957c1.383 1.173 2.322 2.57 2.654 4.072z" fill="#232A37"/><path d="M24.936 31.877h.179a20.174 20.174 0 015.55.758l.122.035.244.073a14.71 14.71 0 014.17 2.058 8.509 8.509 0 01-3.279.744h-.052a7.684 7.684 0 01-3.312-.783 7.731 7.731 0 00-2.923-.667h-.157a5.11 5.11 0 00-3.322 1.202 6.878 6.878 0 00-1.645.318 4.165 4.165 0 01-1.128.227h-.441a22.594 22.594 0 01-4.033-1.076c2.58-1.806 6.21-2.857 10.027-2.889zm-10.674 3.385c1.806.723 3.902 1.236 4.541 1.271h.143c.143 0 .294.018.444.021a5.07 5.07 0 001.355-.248c.175-.052.35-.101.524-.143l-.024.024-1.198 1.314a.698.698 0 00-.179.765.95.95 0 00.35.39c.407.227.868.34 1.334.329.178 0 .355-.022.527-.063.52-.119 1.048-.548 1.628-1.013a5.298 5.298 0 011.533-.94c.135-.036.273-.056.413-.059h.104c.428.07.827.257 1.153.542.946.698 4.991 4.191 5.46 4.575a.772.772 0 01.25.577.608.608 0 01-.32.51.993.993 0 01-.528.17.898.898 0 01-.447-.122s-.053-.048-.101-.118a81.587 81.587 0 00-1.977-1.747.489.489 0 00-.315-.153.235.235 0 00-.185.087c-.101.13-.049.314.136.468l1.775 1.746a.754.754 0 01.216.43.719.719 0 01-.37.653 1.03 1.03 0 01-.573.196.856.856 0 01-.454-.123l-.269-.265c-.46-.444-.936-.901-1.282-1.188a.545.545 0 00-.317-.153.244.244 0 00-.175.077c-.05.059-.112.181.031.349.028.038.06.073.095.105l1.292 1.425a.399.399 0 01.028.503l-.039.056a1.483 1.483 0 01-.108.104.932.932 0 01-.573.186 1.058 1.058 0 01-.157 0c-.143-.025-.189-.06-.202-.077l-.042-.042a14.705 14.705 0 00-1.157-1.087.51.51 0 00-.303-.146.237.237 0 00-.182.08c-.108.122-.06.3.126.468l.97 1.086c-.024.035-.132.154-.502.203a1.056 1.056 0 01-.147 0 2.31 2.31 0 01-.946-.262 1.722 1.722 0 00-1.575-2.361 1.502 1.502 0 00-.898-1.516 1.858 1.858 0 00-.699-.15 1.67 1.67 0 00-.457.073 1.477 1.477 0 00-.814-.646 1.679 1.679 0 00-.615-.101 1.649 1.649 0 00-.894.269 1.471 1.471 0 00-1.083-.479c-.362.005-.71.142-.978.384-.412-.29-1.806-1.103-5.292-1.865-.16-.035-.502-.129-.789-.21.287-1.498 1.244-2.944 2.739-4.16z" fill="#232A37"/><path d="M38.625 41.046c0 .115-.025.23-.039.35-.307 1.98-1.655 3.841-3.873 5.273-2.57 1.684-5.997 2.62-9.647 2.651h-.182c-7.446 0-13.51-3.842-13.548-8.61 0-.15 0-.314.02-.499l.759.171c3.437.734 4.725 1.509 5.043 1.747a1.474 1.474 0 001.387 1.963c.066.003.133.003.199 0a1.7 1.7 0 001.09 1.177 1.4 1.4 0 00.785.07c.183.363.5.641.884.775.184.072.38.11.576.112.127 0 .253-.018.374-.056a1.716 1.716 0 001.551.978 1.726 1.726 0 001.18-.486c.422.23.89.36 1.37.38h.22a1.339 1.339 0 00.988-.502l.032-.042c.13.032.264.048.398.049.344-.011.675-.134.943-.35.26-.18.451-.446.541-.75h.227c.345-.008.679-.117.96-.315a1.396 1.396 0 00.7-1.152c.071.007.144.007.216 0 .323-.006.637-.106.905-.287a1.328 1.328 0 00.625-1.047c.019-.26-.036-.52-.157-.752a35.975 35.975 0 015.459-1.746c0 .15.028.304.028.458 0 .153-.004.293-.014.44z" fill="#232A37"/><rect opacity=".4" x="32.44" y="8.631" width="8.929" height="11.905" rx=".75" fill="#EDEDED"/></svg>