<svg width="71" height="32" viewBox="0 0 313 140" fill="none" xmlns="http://www.w3.org/2000/svg"><g clip-path="url(#clip0)" fill-rule="evenodd" clip-rule="evenodd"><path d="M225.919 31.475h8.123c4.734 0 9.185 1.845 12.533 5.192l19.002 18.647a4.298 4.298 0 003.063 1.269 4.311 4.311 0 003.064-1.269l18.93-18.577a17.615 17.615 0 0112.535-5.194h6.604a1.969 1.969 0 110 3.94h-6.604a13.687 13.687 0 00-9.749 4.039L274.488 58.1a8.212 8.212 0 01-5.848 2.423 8.216 8.216 0 01-5.849-2.424l-19-18.648a13.697 13.697 0 00-9.749-4.037h-8.123a1.97 1.97 0 110-3.939zm-17.586 60.666a1.97 1.97 0 003.938 0V42.188c0-5.907-4.806-10.713-10.713-10.713h-8.191a1.969 1.969 0 100 3.939h8.191a6.783 6.783 0 016.775 6.774v49.953zm-83.636 23.429c0 .522.208 1.023.577 1.393a1.973 1.973 0 002.786 0c.369-.37.577-.871.577-1.393V54.76c0-10.662 8.674-19.338 19.334-19.338l18.882.029c10.625.021 19.268 8.68 19.268 19.305v15.791c0 10.663-8.675 19.338-19.338 19.338h-29.644a1.972 1.972 0 00-1.969 1.97 1.97 1.97 0 001.969 1.969h29.644c12.835 0 23.277-10.442 23.277-23.277v-15.79c0-12.792-10.407-23.22-23.2-23.246l-18.886-.027c-12.835 0-23.277 10.441-23.277 23.276v60.81zm109.345-21.745h-8.123a1.97 1.97 0 110-3.94h8.123c3.683 0 7.145-1.433 9.749-4.037l19-18.648a8.214 8.214 0 015.849-2.422 8.214 8.214 0 015.848 2.422l18.932 18.578a13.696 13.696 0 009.749 4.038h6.604a1.969 1.969 0 110 3.94h-6.604a17.605 17.605 0 01-12.535-5.192l-18.93-18.579a4.313 4.313 0 00-3.064-1.268 4.302 4.302 0 00-3.063 1.268l-19.002 18.648a17.61 17.61 0 01-12.533 5.192z" fill="#98989C"/><path d="M208.548 26.458l-3.715-3.716a2.353 2.353 0 01-.692-1.669 2.354 2.354 0 01.692-1.669l3.713-3.712a2.362 2.362 0 013.341 0l3.714 3.713a2.363 2.363 0 010 3.338l-3.715 3.715a2.363 2.363 0 01-3.338 0zM79.79 45.448a15.174 15.174 0 00-10.795 4.469L53.353 65.563a2.898 2.898 0 01-4.095-.001L33.67 49.975a15.169 15.169 0 00-10.793-4.47h-1.878L40.795 25.71c6.166-6.166 16.162-6.166 22.326 0l19.74 19.738h-3.07v.001zM22.877 100.58a15.183 15.183 0 0010.793-4.47l15.585-15.586c1.095-1.097 3.001-1.095 4.096 0l15.643 15.643a15.167 15.167 0 0010.794 4.47h3.07l-19.738 19.74c-6.165 6.164-16.161 6.164-22.327 0L20.998 100.58h1.878v-.001zm-6.46-50.491L4.624 61.879c-6.165 6.165-6.165 16.16 0 22.326l11.79 11.79 6.462.002a10.751 10.751 0 007.55-3.129l15.588-15.585c2.824-2.828 7.753-2.826 10.58-.001l15.644 15.642a10.75 10.75 0 007.55 3.13h7.655l11.848-11.848c6.165-6.167 6.165-16.162 0-22.327L87.444 50.03l-7.654.002a10.745 10.745 0 00-7.552 3.129L56.595 68.805a7.468 7.468 0 01-5.29 2.186 7.459 7.459 0 01-5.29-2.188L30.428 53.216a10.748 10.748 0 00-7.551-3.128h-6.46z" fill="#4BB8A9"/></g><defs><clipPath id="clip0"><path fill="#fff" d="M0 0h313v140H0z"/></clipPath></defs></svg>