<svg xmlns="http://www.w3.org/2000/svg" width="64" height="64" fill="none" viewBox="0 0 64 64"><circle cx="32" cy="32" r="32" fill="#EEE"/><path fill="#2D3277" fill-rule="evenodd" d="M52 31.08C52 23.876 43.046 18 32.001 18s-19.999 5.875-19.999 13.08l-.002.766c0 7.646 7.826 13.837 19.998 13.837C44.245 45.683 52 39.493 52 31.848z" clip-rule="evenodd"/><path fill="#00B1EA" fill-rule="evenodd" d="M51.234 31.075c0 6.793-8.61 12.301-19.23 12.301s-19.23-5.508-19.23-12.301c0-6.795 8.61-12.302 19.23-12.302s19.23 5.507 19.23 12.302" clip-rule="evenodd"/><path fill="#FFFFFE" fill-rule="evenodd" d="M25.62 27.193c-.011.02-.202.218-.078.377.303.388 1.24.61 2.188.398.565-.127 1.288-.703 1.989-1.259.76-.603 1.512-1.207 2.27-1.447.802-.255 1.316-.146 1.655-.043.373.11.81.356 1.51.88 1.315.99 6.606 5.607 7.52 6.406.736-.333 4.008-1.741 8.455-2.721-.387-2.371-1.829-4.54-4.016-6.315-3.048 1.28-6.772 1.947-10.415.169-.018-.008-1.99-.941-3.934-.895-2.89.067-4.142 1.318-5.467 2.642z" clip-rule="evenodd"/><path fill="#FFFFFE" fill-rule="evenodd" d="M42.46 33.007c-.063-.055-6.222-5.444-7.617-6.493-.808-.606-1.257-.76-1.728-.82-.246-.032-.585.013-.822.079-.649.176-1.498.744-2.252 1.341-.78.621-1.515 1.206-2.198 1.36-.872.195-1.937-.036-2.423-.364-.197-.133-.335-.286-.402-.441-.18-.416.152-.75.206-.805l1.7-1.839q.296-.295.6-.588c-.548.071-1.055.212-1.549.349-.616.173-1.208.338-1.807.337-.25 0-1.59-.22-1.845-.288-1.538-.421-2.888-.831-4.905-1.773-2.416 1.799-4.032 4.048-4.499 6.525.348.092.907.259 1.142.31 5.468 1.216 7.171 2.469 7.48 2.73a1.82 1.82 0 0 1 1.355-.607c.606 0 1.15.304 1.482.774a2.06 2.06 0 0 1 1.303-.458q.383.001.782.137a1.8 1.8 0 0 1 1.1.994c.208-.093.462-.163.762-.162q.443.001.91.2c1.008.434 1.165 1.424 1.073 2.17q.107-.012.218-.011a2.17 2.17 0 0 1 2.167 2.168c0 .37-.095.718-.26 1.024.326.182 1.155.596 1.883.504.581-.074.802-.272.88-.384.055-.077.112-.167.06-.231l-1.544-1.714s-.254-.24-.17-.333c.087-.095.244.041.355.134.786.656 1.744 1.645 1.744 1.645.016.011.08.137.434.2.305.055.846.023 1.22-.284a2 2 0 0 0 .268-.275q-.01.01-.018.014c.394-.505-.044-1.015-.044-1.015l-1.8-2.023s-.259-.238-.17-.334c.077-.083.243.043.356.136.57.477 1.376 1.286 2.148 2.042.151.11.83.53 1.729-.06.545-.358.654-.797.64-1.129-.039-.439-.381-.751-.381-.751l-2.46-2.474s-.26-.222-.169-.334c.076-.094.244.042.355.134.783.656 2.905 2.601 2.905 2.601.03.022.764.544 1.67-.033.324-.208.53-.52.548-.882.03-.63-.413-1.003-.413-1.003" clip-rule="evenodd"/><path fill="#FFFFFE" fill-rule="evenodd" d="M30.525 36.143c-.381-.005-.799.222-.853.189-.03-.02.023-.173.059-.262.036-.088.54-1.6-.686-2.124-.937-.403-1.51.05-1.707.254q-.075.083-.08-.019c-.02-.272-.14-1.008-.95-1.255-1.156-.354-1.9.453-2.088.744a1.338 1.338 0 0 0-2.667.17 1.342 1.342 0 0 0 2.27.968q.011.009.006.045c-.056.332-.16 1.538 1.103 2.029.506.196.937.05 1.294-.2.107-.075.124-.043.108.056-.045.31.013.974.944 1.352.708.288 1.127-.007 1.402-.26.12-.11.152-.092.158.077.034.897.78 1.61 1.685 1.61.933.002 1.689-.752 1.69-1.685s-.755-1.68-1.688-1.69" clip-rule="evenodd"/><path fill="#2D3277" fill-rule="evenodd" d="M30.525 39.398a1.556 1.556 0 0 1-1.564-1.495c-.002-.072-.01-.263-.17-.263-.067 0-.125.04-.191.1-.186.172-.423.348-.769.348q-.235 0-.506-.11c-.893-.362-.905-.975-.868-1.222.01-.066.012-.134-.033-.187l-.055-.05h-.055c-.046 0-.093.019-.156.064-.258.181-.506.269-.757.269q-.209 0-.424-.083c-1.175-.457-1.082-1.566-1.025-1.9q.014-.102-.051-.155l-.083-.069-.078.074a1.2 1.2 0 0 1-.843.342 1.22 1.22 0 0 1-1.22-1.22 1.218 1.218 0 0 1 2.425-.155l.042.328.18-.278c.02-.032.514-.778 1.42-.777q.26 0 .53.083c.723.221.845.876.864 1.15.013.158.127.166.149.166.062 0 .108-.04.14-.073.137-.143.434-.38.9-.38a1.7 1.7 0 0 1 .672.152c1.15.493.628 1.953.622 1.968-.099.242-.103.349-.01.41l.045.022h.034a.8.8 0 0 0 .222-.059c.157-.054.393-.135.614-.134a1.58 1.58 0 0 1 1.568 1.568 1.57 1.57 0 0 1-1.569 1.566m12.172-7.037c-1.897-1.655-6.282-5.467-7.469-6.358-.679-.51-1.141-.78-1.547-.901a2.6 2.6 0 0 0-.76-.118q-.456 0-.965.162c-.768.243-1.533.85-2.272 1.438l-.038.03c-.69.548-1.401 1.115-1.94 1.235q-.354.08-.718.08c-.604 0-1.146-.175-1.349-.434q-.051-.063.066-.212l.01-.013 1.67-1.799c1.307-1.307 2.541-2.541 5.384-2.607l.142-.002c1.769.001 3.537.793 3.736.885 1.658.81 3.37 1.22 5.092 1.222 1.793 0 3.644-.444 5.59-1.34q-.328-.273-.676-.535c-1.71.74-3.338 1.115-4.91 1.115-1.605-.002-3.208-.387-4.765-1.146-.082-.04-2.034-.96-4.066-.961l-.16.001c-2.388.056-3.733.904-4.637 1.647-.88.021-1.638.233-2.314.422-.602.167-1.122.312-1.63.312-.209 0-.585-.019-.619-.02-.584-.018-3.523-.739-5.862-1.624q-.357.254-.692.521c2.443 1.002 5.416 1.776 6.355 1.837.26.017.539.046.817.047.62 0 1.24-.174 1.84-.342.354-.099.745-.207 1.155-.286l-.329.327-1.695 1.834c-.134.135-.424.494-.232.937.076.179.23.35.445.495.405.272 1.128.456 1.8.456a3.2 3.2 0 0 0 .718-.075c.711-.159 1.457-.753 2.247-1.38.629-.5 1.523-1.136 2.208-1.322a2.5 2.5 0 0 1 .615-.085q.084 0 .16.01c.451.057.889.211 1.67.797 1.391 1.046 7.55 6.434 7.61 6.487.005.004.398.342.37.906-.014.314-.189.593-.492.786a1.5 1.5 0 0 1-.808.252 1.34 1.34 0 0 1-.714-.207c-.022-.018-2.133-1.954-2.91-2.604-.123-.102-.243-.195-.364-.195a.2.2 0 0 0-.162.076c-.122.151.015.36.176.497l2.465 2.478c.004.002.308.287.341.667.02.411-.177.755-.585 1.023-.291.191-.586.288-.874.288-.38 0-.644-.172-.703-.213l-.354-.348c-.646-.636-1.313-1.294-1.802-1.702-.12-.099-.246-.19-.367-.19a.2.2 0 0 0-.156.066c-.055.062-.094.173.045.357.057.076.124.14.124.14l1.8 2.02c.014.018.37.44.04.862l-.064.08a2 2 0 0 1-.167.162c-.307.252-.717.279-.88.279a1.4 1.4 0 0 1-.242-.021q-.268-.047-.355-.15l-.022-.022c-.098-.102-1.005-1.027-1.755-1.654-.099-.083-.222-.187-.35-.187a.21.21 0 0 0-.162.073c-.149.162.075.406.169.494l1.534 1.692a.4.4 0 0 1-.058.104c-.055.075-.241.262-.797.332a2 2 0 0 1-.204.012c-.574 0-1.186-.279-1.502-.446a2.29 2.29 0 0 0-2.152-3.262c.041-.576-.04-1.668-1.16-2.148a2.4 2.4 0 0 0-.958-.21q-.369 0-.701.126a1.93 1.93 0 0 0-1.121-.952 2.5 2.5 0 0 0-.822-.145q-.701.001-1.279.41a1.94 1.94 0 0 0-1.505-.727c-.511 0-1.003.205-1.367.566-.478-.365-2.372-1.568-7.443-2.72a28 28 0 0 1-1.154-.318 8 8 0 0 0-.13.832s.935.224 1.119.265c5.18 1.15 6.892 2.347 7.181 2.573a1.942 1.942 0 0 0 2.147 2.656c.162.787.677 1.384 1.465 1.69q.347.134.69.134.224 0 .443-.055c.145.37.472.83 1.204 1.127q.387.156.763.157.306 0 .592-.105a2.29 2.29 0 0 0 2.116 1.42c.616 0 1.208-.25 1.64-.695.37.205 1.15.577 1.937.578.103 0 .198-.007.294-.019.782-.099 1.147-.405 1.314-.643a1 1 0 0 0 .08-.132c.186.054.389.098.622.098.427 0 .837-.146 1.251-.448.408-.293.698-.715.74-1.074l.001-.016q.208.043.42.043c.44 0 .873-.137 1.286-.408.798-.523.936-1.207.923-1.654q.211.044.424.044c.414 0 .82-.124 1.205-.37.495-.316.793-.8.839-1.364.03-.383-.065-.77-.267-1.101 1.337-.576 4.392-1.69 7.99-2.501a8 8 0 0 0-.111-.83c-4.354.967-7.602 2.372-8.416 2.734" clip-rule="evenodd"/></svg>